<?xml version="1.0" encoding="UTF-8"?>
<svg xmlns="http://www.w3.org/2000/svg" xmlns:xlink="http://www.w3.org/1999/xlink" width="128px" height="128px" viewBox="0 0 128 128" version="1.1">
<g id="surface1">
<path style=" stroke:none;fill-rule:nonzero;fill:rgb(94.901961%,54.11765%,17.254902%);fill-opacity:1;" d="M 26 108.800781 C 34.121094 108.800781 42.078125 106.601562 49.039062 102.421875 L 70.398438 89.601562 L 25.601562 89.601562 L 25.601562 108.800781 Z M 70.398438 38.398438 L 49.039062 25.578125 C 42.078125 21.398438 34.121094 19.199219 26 19.199219 L 25.601562 19.199219 L 25.601562 38.398438 Z M 19.199219 38.398438 L 19.199219 19.199219 L 16 19.199219 C 10.699219 19.199219 6.398438 23.5 6.398438 28.800781 L 6.398438 38.398438 L 8 38.398438 C 3.578125 38.398438 0 41.980469 0 46.398438 L 0 81.601562 C 0 86.019531 3.578125 89.601562 8 89.601562 L 6.398438 89.601562 L 6.398438 99.199219 C 6.398438 104.5 10.699219 108.800781 16 108.800781 L 19.199219 108.800781 L 19.199219 89.601562 L 20.800781 89.601562 C 26.039062 89.601562 30.679688 87.078125 33.601562 83.199219 L 91.199219 83.199219 C 105.058594 83.199219 118.199219 78.660156 127.039062 66.878906 C 128.320312 65.179688 128.320312 62.820312 127.039062 61.121094 C 118.199219 49.339844 105.058594 44.800781 91.199219 44.800781 L 33.601562 44.800781 C 30.679688 40.921875 26.039062 38.398438 20.800781 38.398438 Z M 102.398438 61.519531 L 102.398438 66.5 C 102.398438 70.421875 99.21875 73.621094 95.28125 73.621094 C 94.78125 73.621094 94.398438 73.21875 94.398438 72.738281 L 94.398438 55.28125 C 94.398438 54.78125 94.800781 54.398438 95.28125 54.398438 C 99.199219 54.398438 102.398438 57.578125 102.398438 61.519531 Z M 102.398438 61.519531 "/>
</g>
</svg>
