<?xml version="1.0" encoding="UTF-8"?>
<svg xmlns="http://www.w3.org/2000/svg" xmlns:xlink="http://www.w3.org/1999/xlink" width="16px" height="16px" viewBox="0 0 16 16" version="1.1">
<g id="surface1">
<path style=" stroke:none;fill-rule:nonzero;fill:rgb(94.901961%,54.11765%,17.254902%);fill-opacity:1;" d="M 3.25 13.601562 C 4.265625 13.601562 5.261719 13.324219 6.128906 12.800781 L 8.800781 11.199219 L 3.199219 11.199219 L 3.199219 13.601562 Z M 8.800781 4.800781 L 6.128906 3.199219 C 5.261719 2.675781 4.265625 2.398438 3.25 2.398438 L 3.199219 2.398438 L 3.199219 4.800781 Z M 2.398438 4.800781 L 2.398438 2.398438 L 2 2.398438 C 1.335938 2.398438 0.800781 2.9375 0.800781 3.601562 L 0.800781 4.800781 L 1 4.800781 C 0.449219 4.800781 0 5.246094 0 5.800781 L 0 10.199219 C 0 10.753906 0.449219 11.199219 1 11.199219 L 0.800781 11.199219 L 0.800781 12.398438 C 0.800781 13.0625 1.335938 13.601562 2 13.601562 L 2.398438 13.601562 L 2.398438 11.199219 L 2.601562 11.199219 C 3.253906 11.199219 3.835938 10.886719 4.199219 10.398438 L 11.398438 10.398438 C 13.132812 10.398438 14.773438 9.832031 15.878906 8.359375 C 16.039062 8.148438 16.039062 7.851562 15.878906 7.640625 C 14.773438 6.167969 13.132812 5.601562 11.398438 5.601562 L 4.199219 5.601562 C 3.835938 5.113281 3.253906 4.800781 2.601562 4.800781 Z M 12.800781 7.691406 L 12.800781 8.3125 C 12.800781 8.800781 12.402344 9.203125 11.910156 9.203125 C 11.847656 9.203125 11.800781 9.152344 11.800781 9.09375 L 11.800781 6.910156 C 11.800781 6.847656 11.851562 6.800781 11.910156 6.800781 C 12.398438 6.800781 12.800781 7.199219 12.800781 7.691406 Z M 12.800781 7.691406 "/>
</g>
</svg>
